<?xml version="1.0" encoding="UTF-8" standalone="no"?>
<!-- Created with Inkscape (http://www.inkscape.org/) -->

<svg
   xmlns:dc="http://purl.org/dc/elements/1.1/"
   xmlns:cc="http://creativecommons.org/ns#"
   xmlns:rdf="http://www.w3.org/1999/02/22-rdf-syntax-ns#"
   xmlns:svg="http://www.w3.org/2000/svg"
   xmlns="http://www.w3.org/2000/svg"
   xmlns:sodipodi="http://sodipodi.sourceforge.net/DTD/sodipodi-0.dtd"
   xmlns:inkscape="http://www.inkscape.org/namespaces/inkscape"
   width="744.09448819"
   height="1052.3622047"
   id="svg2"
   version="1.1"
   inkscape:version="0.48.2 r9819"
   sodipodi:docname="New document 1">
  <defs
     id="defs4" />
  <sodipodi:namedview
     id="base"
     pagecolor="#ffffff"
     bordercolor="#666666"
     borderopacity="1.0"
     inkscape:pageopacity="0.0"
     inkscape:pageshadow="2"
     inkscape:zoom="0.48462403"
     inkscape:cx="372.04724"
     inkscape:cy="494.98873"
     inkscape:document-units="px"
     inkscape:current-layer="layer1"
     showgrid="false"
     inkscape:window-width="1366"
     inkscape:window-height="680"
     inkscape:window-x="0"
     inkscape:window-y="30"
     inkscape:window-maximized="1" />
  <metadata
     id="metadata7">
    <rdf:RDF>
      <cc:Work
         rdf:about="">
        <dc:format>image/svg+xml</dc:format>
        <dc:type
           rdf:resource="http://purl.org/dc/dcmitype/StillImage" />
        <dc:title></dc:title>
      </cc:Work>
    </rdf:RDF>
  </metadata>
  <g
     inkscape:label="Layer 1"
     inkscape:groupmode="layer"
     id="layer1">
    <path
       style="fill:none;stroke:#000000;stroke-width:37.22513962;stroke-linecap:round;stroke-linejoin:miter;stroke-miterlimit:4;stroke-opacity:1;stroke-dasharray:none"
       d="m 639.06748,770.40766 c -51.46557,82.41944 -145.99985,106.27298 -228.55868,97.12371 -37.55399,-2.99462 -71.41358,-25.88884 -108.94645,-30.54213 -65.2146,-15.48086 -131.39337,-1.75609 -195.62704,13.02102 12.6163,-10.73285 45.73698,-20.88443 65.22633,-33.42864 128.74529,-68.44469 282.68785,-167.5921 348.88213,-318.22727 42.41767,-99.25557 41.92942,-138.7251 4.95396,-241.95376 -15.74687,-42.2008 -54.23307,-65.41053 -87.75785,-85.29958 -66.5288,-34.52922 -145.69594,-47.62964 -213.42993,-9.7459 -39.35008,21.66151 -78.6227,53.50602 -98.60216,99.8713 -47.905667,74.858 67.8712,178.40222 124.40565,113.87879 93.00331,-88.17957 1.52935,-178.0049 -74.47498,-158.72364 -9.13299,-2.10827 -18.72567,-1.44323 -27.55797,2.02314"
       id="path2985"
       inkscape:connector-curvature="0"
       sodipodi:nodetypes="ccccccccccccc" />
  </g>
</svg>
