<?xml version="1.0" encoding="UTF-8" standalone="no"?>
<svg
   xmlns:dc="http://purl.org/dc/elements/1.1/"
   xmlns:cc="http://creativecommons.org/ns#"
   xmlns:rdf="http://www.w3.org/1999/02/22-rdf-syntax-ns#"
   xmlns:svg="http://www.w3.org/2000/svg"
   xmlns="http://www.w3.org/2000/svg"
   xmlns:sodipodi="http://sodipodi.sourceforge.net/DTD/sodipodi-0.dtd"
   xmlns:inkscape="http://www.inkscape.org/namespaces/inkscape"
   viewBox="0 -217 1000 1000"
   id="svg3057"
   version="1.1"
   inkscape:version="0.48.2 r9819"
   width="100%"
   height="100%"
   sodipodi:docname="three_FProject-Regular.svg">
  <metadata
     id="metadata3067">
    <rdf:RDF>
      <cc:Work
         rdf:about="">
        <dc:format>image/svg+xml</dc:format>
        <dc:type
           rdf:resource="http://purl.org/dc/dcmitype/StillImage" />
      </cc:Work>
    </rdf:RDF>
  </metadata>
  <defs
     id="defs3065" />
  <sodipodi:namedview
     pagecolor="#ffffff"
     bordercolor="#666666"
     borderopacity="1"
     objecttolerance="10"
     gridtolerance="10"
     guidetolerance="10"
     inkscape:pageopacity="0"
     inkscape:pageshadow="2"
     inkscape:window-width="1366"
     inkscape:window-height="744"
     id="namedview3063"
     showgrid="false"
     showguides="true"
     inkscape:guide-bbox="true"
     inkscape:zoom="0.597"
     inkscape:cx="500"
     inkscape:cy="500"
     inkscape:window-x="0"
     inkscape:window-y="24"
     inkscape:window-maximized="1"
     inkscape:current-layer="svg3057">
    <sodipodi:guide
       orientation="0,1"
       position="877.72194,-75.376884"
       id="guide3101" />
  </sodipodi:namedview>
  <g
     transform="matrix(1,0,0,-1,78.726968,548.74372)"
     id="g3059">
    <path
       d="m 264.10088,-161.88841 c 70.6037,-45.89683 186.74923,-60.79204 299.63166,-18.78876 40.86806,21.58 91.71318,53.61199 112.75754,128.996254 C 706.31135,55.143625 707.33278,151.89387 623.2,234.409 c -9.81403,8.56401 -24.78994,17.36163 -3.16101,48.716 60.68481,87.9717 75.65589,156.92686 39.238,276.699 -1.08618,3.57227 -35.77168,118.56334 -245.18084,150.7718 -174.74187,-13.89696 -236.22268,-97.80073 -253.22016,-166.6496 -20.3882,-61.2662 3.66617,-113.906 17.752,-119.923 18.3712,-7.84686 47.79,-23.6582 61.4248,32.4912 -74.45203,170.09858 153.19366,226.24404 272.83669,176.00445 60.87632,-39.68844 52.15505,-39.79005 86.29962,-93.72017 49.1368,-106.363 18.5071,-197.911 -73.992,-235.41 -109.94128,2.52286 -185.79158,-9.78218 -194.95,-7.76901 l 2.897,5.16602 c -17.9968,-13.54 -44.072,-27.8333 -22.076,-56.205 71.57641,-36.31596 172.79129,0.2118 214.312,-18.031 89.8618,-23.7604 125.619,-143.163998 87.61,-260.716998 -12.579,-38.8981 -53.97263,-72.351452 -101.208,-86.852602 -89.43788,-27.45723 -150.9105,-18.97974 -216.72712,11.69159 -61.07968,16.696536 -122.76949,115.4476531 -79.22824,164.401323 33.386,34.3443 -3.2108,82.743597 -42.346,43.6428 -37.2102,-37.1766 -40.19305,-86.513772 -18.1641,-142.892 25.82491,-55.618434 54.35824,-90.081613 108.78424,-117.712213 z"
       id="path3061"
       inkscape:connector-curvature="0"
       style="fill:currentColor"
       sodipodi:nodetypes="ccscssccccccccccccsccscc" />
  </g>
</svg>
