<?xml version="1.0" encoding="UTF-8"?>
<!DOCTYPE svg PUBLIC "-//W3C//DTD SVG 1.1//EN" "http://www.w3.org/Graphics/SVG/1.1/DTD/svg11.dtd"><svg version="1.1" viewBox="0 0 21000 29700" preserveAspectRatio="xMidYMid" fill-rule="evenodd" xmlns="http://www.w3.org/2000/svg" xmlns:xlink="http://www.w3.org/1999/xlink"><g visibility="visible" id="Default" class="Master_Slide"><g style="stroke:none;fill:none"><rect x="0" y="0" width="21000" height="29700"/></g></g><g visibility="visible" id="page1" class="Slide"><g class="Graphic"><g><g style="stroke:rgb(254,254,254);fill:rgb(254,254,254)"><path d="M 1052,1414 L 19896,1414 19948,1466 19948,28181 19896,28234 1052,28234 1000,28181 1000,1466 Z M 11701,4394 L 11753,4394 12118,4499 12745,4812 13162,5126 13736,5701 13997,6067 14363,6851 14676,8054 14676,9047 14624,9465 14415,10197 14154,10772 13736,11400 13684,11452 13632,11452 13527,11556 13527,11609 13162,11975 12640,12341 11857,12707 10657,12968 10604,13020 10813,22744 10239,22744 9978,13020 9926,12968 9717,12968 8621,12707 8151,12497 7368,11975 7264,11870 7264,11818 7159,11713 7107,11713 7003,11609 7003,11556 6898,11452 6846,11452 6794,11400 6481,10929 6272,10511 6011,9779 5854,8995 5854,8001 5959,7374 6115,6903 6324,6433 6429,6328 6533,6119 6533,6067 6794,5701 7420,5074 7629,4917 7734,4917 7995,5178 8047,5283 8047,5440 7995,5492 7890,5492 7473,5858 7473,5910 7368,6015 7316,6015 7264,6067 7003,6433 6742,7008 6429,8054 6429,9047 6690,10040 6951,10563 7420,11190 7942,11661 8360,11922 8725,12079 9769,12393 9926,12393 9978,12341 9874,7165 9821,6799 9769,6590 9769,6276 9821,6067 9926,5858 10239,5387 10343,5283 10396,5283 10448,5230 10500,5126 10500,5074 11179,4499 11283,4446 11648,4446 Z M 11596,5230 L 12170,5230 12640,5492 12901,5701 13162,5962 13736,6799 13788,6903 14049,7740 14102,8210 14102,8942 13893,9831 13736,10249 13580,10563 13475,10720 13371,10824 13214,11034 13214,11086 13058,11243 13005,11243 12953,11295 12953,11347 12797,11504 11753,12131 10761,12393 10604,12393 10552,12341 10448,6956 10552,6694 10761,6328 10813,6171 10813,6067 11126,5596 11335,5387 11387,5387 11492,5335 Z"/></g><g style="stroke:rgb(1,1,1);fill:rgb(1,1,1)"><path d="M 11387,4394 L 12066,4394 12431,4655 12588,4708 12640,4708 13005,4969 13475,5387 13475,5440 13527,5492 13580,5492 13684,5596 14258,6433 14519,7165 14728,8106 14728,8995 14676,9413 14415,10302 13997,11086 13788,11295 13736,11400 13736,11452 13684,11504 13632,11504 13527,11609 13527,11661 12797,12288 12275,12602 11596,12863 10813,13020 10657,13072 10604,13125 10865,22117 10865,22692 10761,22797 10239,22797 10187,22744 9926,13177 9978,13125 9926,13020 8830,12811 8203,12550 7473,12027 7368,11975 7316,11975 7212,11870 7212,11818 7159,11765 7107,11765 6951,11609 6951,11556 6898,11504 6846,11504 6794,11452 6794,11400 6533,11034 6429,10929 6168,10406 5907,9674 5802,8942 5802,8106 6168,6642 6898,5544 7316,5126 7525,4969 7734,4969 7838,5074 7995,5283 7995,5387 7264,6119 6898,6694 6481,8001 6481,9099 6742,10093 6846,10302 6951,10406 7055,10615 7055,10668 7316,11034 7473,11190 7525,11190 7577,11243 7577,11295 7734,11452 7786,11452 8047,11661 8151,11765 8308,11870 8621,12027 9195,12236 9717,12341 9926,12341 9874,8524 9821,8472 9821,6276 9978,5910 10187,5544 10396,5283 10970,4708 11022,4708 11179,4603 Z M 11596,5283 L 12170,5283 12797,5649 13214,6067 13632,6747 13788,7113 14049,8106 14049,8995 13997,9465 13893,9831 13632,10406 13423,10772 13162,11086 12797,11452 12536,11661 12014,11975 10813,12341 10604,12341 10500,7322 10448,7269 10448,6903 10500,6694 10813,6224 10918,6015 10918,5962 11074,5701 11387,5387 Z"/></g></g></g></g></svg>