<?xml version="1.0" encoding="UTF-8" standalone="no"?>
<svg
   xmlns:dc="http://purl.org/dc/elements/1.1/"
   xmlns:cc="http://creativecommons.org/ns#"
   xmlns:rdf="http://www.w3.org/1999/02/22-rdf-syntax-ns#"
   xmlns:svg="http://www.w3.org/2000/svg"
   xmlns="http://www.w3.org/2000/svg"
   xmlns:sodipodi="http://sodipodi.sourceforge.net/DTD/sodipodi-0.dtd"
   xmlns:inkscape="http://www.inkscape.org/namespaces/inkscape"
   viewBox="0 -2 256 257"
   id="svg2"
   version="1.1"
   inkscape:version="0.48.2 r9819"
   width="100%"
   height="100%"
   sodipodi:docname="uni098F_Exodia-Regular.svg">
  <metadata
     id="metadata12">
    <rdf:RDF>
      <cc:Work
         rdf:about="">
        <dc:format>image/svg+xml</dc:format>
        <dc:type
           rdf:resource="http://purl.org/dc/dcmitype/StillImage" />
      </cc:Work>
    </rdf:RDF>
  </metadata>
  <defs
     id="defs10" />
  <sodipodi:namedview
     pagecolor="#ffffff"
     bordercolor="#666666"
     borderopacity="1"
     objecttolerance="10"
     gridtolerance="10"
     guidetolerance="10"
     inkscape:pageopacity="0"
     inkscape:pageshadow="2"
     inkscape:window-width="1366"
     inkscape:window-height="731"
     id="namedview8"
     showgrid="false"
     inkscape:zoom="2.1828794"
     inkscape:cx="47.83066"
     inkscape:cy="128.5"
     inkscape:window-x="0"
     inkscape:window-y="1"
     inkscape:window-maximized="1"
     inkscape:current-layer="svg2" />
  <g
     transform="matrix(0.82026493,0,0,-0.76874877,0.71894027,256.4625)"
     id="g4">
    <path
       d="m 117,216 v -3 c 0,-11 7,-21 16,-23 h 3 c 3,0 6,1 9,2 5,5 7,10 7,13 0,4 0,12 -3,14 -4,3 -6,8 -13,8 -1,1 -2,1 -3,1 -6,0 -13,-7 -16,-12 z m 20,-44 c -21,0 -37,19 -37,41 0,11 5,22 15,30 9,7 20,14 34,14 28,0 50,-27 55,-53 h 1 c 5,-3 5,-33 5,-67 V 76 c 0,-25 -1,-46 -3,-50 0,-9 0,-27 -15,-28 h -1 c -20,0 -31,29 -41,29 h -1 C 131,24 109,19 87,19 67,19 46,24 29,41 15,55 7,74 4,92 v 2 c 0,5 4,10 9,11 h 2 c 5,0 9,-4 10,-9 C 28,81 35,66 45,56 56,44 71,40 87,40 c 18,0 39,6 59,9 h 5 c 16,0 28,-13 35,-21 2,25 3,50 3,75 0,13 1,25 1,38 0,20 -1,40 -6,58 l -1,1 c -3,18 -17,32 -31,35 10,-5 18,-16 18,-29 0,-9 -4,-20 -13,-28 -5,-5 -14,-6 -20,-6 z"
       id="path6"
       inkscape:connector-curvature="0"
       style="fill:currentColor" />
  </g>
  <path
     style="fill:none;stroke:#000000;stroke-width:20;stroke-linecap:round;stroke-linejoin:miter;stroke-miterlimit:4;stroke-opacity:1;stroke-dasharray:none"
     d="m 169.50089,156.50624 c 14.69034,3.03698 31.42173,-4.70891 36.79668,-19.11558 6.46107,-14.05437 13.98075,-29.5763 10.13032,-45.416943 C 213.21903,79.306762 202.65967,70.047191 191.00598,65.052504 177.89831,58.958176 162.86732,55.03723 153.23017,43.494611 147.0295,36.746652 142.15814,26.172125 147.49906,17.515002 c 2.20173,-3.614526 5.58483,-6.363537 9.17474,-8.52035"
     id="path2989"
     inkscape:connector-curvature="0" />
  <path
     style="fill:none;stroke:#000000;stroke-width:1px;stroke-linecap:butt;stroke-linejoin:miter;stroke-opacity:1"
     d="m 156.6738,142.47237 10.53654,-0.91622"
     id="path3764"
     inkscape:connector-curvature="0"
     transform="translate(0,-2)" />
</svg>
