<?xml version="1.0" encoding="UTF-8" standalone="no"?>
<svg
   xmlns:dc="http://purl.org/dc/elements/1.1/"
   xmlns:cc="http://creativecommons.org/ns#"
   xmlns:rdf="http://www.w3.org/1999/02/22-rdf-syntax-ns#"
   xmlns:svg="http://www.w3.org/2000/svg"
   xmlns="http://www.w3.org/2000/svg"
   xmlns:sodipodi="http://sodipodi.sourceforge.net/DTD/sodipodi-0.dtd"
   xmlns:inkscape="http://www.inkscape.org/namespaces/inkscape"
   viewBox="0 0 144 130"
   id="svg2"
   version="1.1"
   inkscape:version="0.48.2 r9819"
   width="100%"
   height="100%"
   sodipodi:docname="ka_ssa_Exodia-Regular.svg">
  <metadata
     id="metadata12">
    <rdf:RDF>
      <cc:Work
         rdf:about="">
        <dc:format>image/svg+xml</dc:format>
        <dc:type
           rdf:resource="http://purl.org/dc/dcmitype/StillImage" />
      </cc:Work>
    </rdf:RDF>
  </metadata>
  <defs
     id="defs10" />
  <sodipodi:namedview
     pagecolor="#ffffff"
     bordercolor="#666666"
     borderopacity="1"
     objecttolerance="10"
     gridtolerance="10"
     guidetolerance="10"
     inkscape:pageopacity="0"
     inkscape:pageshadow="2"
     inkscape:window-width="1366"
     inkscape:window-height="744"
     id="namedview8"
     showgrid="false"
     inkscape:zoom="4.5538462"
     inkscape:cx="72"
     inkscape:cy="65"
     inkscape:window-x="0"
     inkscape:window-y="24"
     inkscape:window-maximized="1"
     inkscape:current-layer="svg2" />
  <g
     transform="matrix(1,0,0,-1,-4.6114865,137.66216)"
     id="g4">
    <path
       style="fill:currentColor"
       d="m 90,96.2998 c -8.441565,1.816433 -18.561852,6.40618 -19.874268,16.00728 -0.899585,7.42369 4.299279,16.40949 12.213072,16.99292 19.220396,0 38.440796,0 57.661196,0 1.33333,-1.66667 2.66667,-3.33333 4,-5 -1.981,-3.12073 -6.28014,-1.65457 -9.42087,-2 -12.85971,0 -25.71942,0 -38.57913,0 1.484153,-6.38849 1.124927,-14.7196 2.727539,-20.01123 11.447731,-1.84237 24.345901,-0.60074 34.100581,-8.016248 C 148.39848,77.87999 137.69171,53.659081 118,55.2998 c -7.40237,-0.302899 -15.96978,3.325255 -17.7951,11.173737 -1.070943,5.18478 -0.623566,11.654473 2.74942,16.050837 20.44054,13.367353 29.26615,-16.874699 11.01286,-17.224574 10.37155,-7.376851 21.78791,9.485509 17.40898,16.450044 C 123.21842,95.204091 111.32931,93.299796 99,93.299796 97.667788,83.980898 98.790388,74.45657 98.93193,65.061906 c 0.378002,-11.992053 1.43275,-24.004615 1.59919,-35.969888 -2.90985,-1.354042 -9.128541,-1.701955 -9.410517,2.952133 -0.252219,5.515369 -1.903314,12.53149 -8.04248,14.077881 -6.609119,4.300354 -3.768397,-6.903471 -8.564189,-9.37083 -9.916809,-12.182925 -43.88363,-14.432926 -35.43961,4.540361 5.128063,10.837898 18.69956,15.815558 28.486487,14.569014 C 65.517655,59.541818 57.120625,73.289889 52.508162,67.327651 46.811141,62.337283 38.888956,62.207025 32.250105,59.140883 20.646237,56.092646 3.7498511,62.204937 8.7015823,74.955733 12.097942,83.339802 21.385066,88.701758 30.337365,87.836928 c 7.178122,0.329557 14.200307,-1.942628 20.611959,-5 C 51.675847,86.364807 40.494407,94.223138 28,94.299766 c -7.09154,0.532921 -9.607441,0.877195 -11,3.355216 3.741141,8.435428 20.303068,15.117848 22.322392,22.644988 -8.182456,-0.14642 -15.353525,-0.0303 -24.529423,0.043 -6.7564033,-1.12803 -8.9693166,8.64923 -1.776557,8.95703 11.661196,0 23.322392,0 34.983588,0 4.673907,-4.14399 3.163059,-11.40163 -0.825562,-15.47156 -2.005134,-3.57181 -9.113695,-7.75274 -9.239929,-9.63391 C 50.426,103.78764 63.310443,89.79836 62,89.299766 65.640582,83.485074 63.662237,79.072576 64.642836,76.085487 79.252298,62.922727 76.656243,56.535547 80.453281,55.623283 97.643535,39.519739 85.40867,80.137212 90,96.2998 z M 29.502659,66.855801 c 27.664951,4.419095 7.339805,19.730007 -6.645132,10.961874 -12.437215,-5.456519 -4.790343,-12.53454 6.645132,-10.961874 z m 31.43853,-31.758602 c 4.616735,2.506696 7.92519,6.387287 8.280818,12.324223 C 48.717622,55.171613 35.189352,27.799188 60.941189,35.097199 z M 79,114.3 c -0.07974,-4.2304 7.160119,-8.03613 8.977539,-7.07373 C 86.999944,111.74311 87.00739,117.68209 85,121.3 c -3.220024,-0.4377 -5.485662,-4.03911 -6,-7 z m 28.24324,-40.780605 c 0.68489,-6.281709 11.65902,-2.099893 8.8201,2.861064 -2.18974,5.774813 -11.26138,0.637896 -8.8201,-2.861064 z"
       id="path6"
       inkscape:connector-curvature="0"
       sodipodi:nodetypes="cccccccccccccccccccccccccccccccccccccccccccccccccccc" />
  </g>
</svg>
