<?xml version="1.0" encoding="UTF-8" standalone="no"?>
<!-- Created with Inkscape (http://www.inkscape.org/) -->

<svg
   xmlns:dc="http://purl.org/dc/elements/1.1/"
   xmlns:cc="http://creativecommons.org/ns#"
   xmlns:rdf="http://www.w3.org/1999/02/22-rdf-syntax-ns#"
   xmlns:svg="http://www.w3.org/2000/svg"
   xmlns="http://www.w3.org/2000/svg"
   xmlns:sodipodi="http://sodipodi.sourceforge.net/DTD/sodipodi-0.dtd"
   xmlns:inkscape="http://www.inkscape.org/namespaces/inkscape"
   width="744.09448819"
   height="1052.3622047"
   id="svg2"
   version="1.1"
   inkscape:version="0.48.2 r9819"
   sodipodi:docname="New document 1">
  <defs
     id="defs4" />
  <sodipodi:namedview
     id="base"
     pagecolor="#ffffff"
     bordercolor="#666666"
     borderopacity="1.0"
     inkscape:pageopacity="0.0"
     inkscape:pageshadow="2"
     inkscape:zoom="0.56254397"
     inkscape:cx="398.71182"
     inkscape:cy="512.56905"
     inkscape:document-units="px"
     inkscape:current-layer="layer1"
     showgrid="false"
     inkscape:window-width="1366"
     inkscape:window-height="744"
     inkscape:window-x="0"
     inkscape:window-y="24"
     inkscape:window-maximized="1" />
  <metadata
     id="metadata7">
    <rdf:RDF>
      <cc:Work
         rdf:about="">
        <dc:format>image/svg+xml</dc:format>
        <dc:type
           rdf:resource="http://purl.org/dc/dcmitype/StillImage" />
        <dc:title></dc:title>
      </cc:Work>
    </rdf:RDF>
  </metadata>
  <g
     inkscape:label="Layer 1"
     inkscape:groupmode="layer"
     id="layer1">
    <path
       style="fill:none;stroke:#000000;stroke-width:40;stroke-linecap:round;stroke-linejoin:round;stroke-opacity:1;stroke-miterlimit:4;stroke-dasharray:none"
       d="m 250.59377,227.65986 c 2.56922,-36.01274 50.45378,-40.14032 73.72068,-20.74709 37.20012,23.47111 16.10388,85.25498 -26.5066,85.77582 -49.28594,0.45611 -74.38688,-72.58802 -35.65368,-102.87852 42.87523,-48.24878 115.55037,-45.25604 172.09777,-27.04521 37.17477,9.84259 71.13665,33.16376 89.75137,67.27358 38.1444,53.48079 39.9232,125.17838 24.78266,185.7983 -8.43996,33.79213 -27.41142,72.60424 -60.89399,84.92409 -16.71365,6.44907 -72.85039,18.25442 -65.89714,16.88845 50.13924,-13.54952 110.69251,-10.16169 148.27093,29.88346 50.92245,45.75957 64.43883,118.03189 68.7264,183.21982 C 638.37806,808.20137 584.30052,881.8565 509.31111,903.11237 383.571,950.36141 228.42439,898.80972 155.80638,786.03539 99.766136,649.33387 106.68121,526.25413 134.53307,400.34688"
       id="path3764"
       inkscape:connector-curvature="0"
       sodipodi:nodetypes="ccccccaccccccc" />
  </g>
</svg>
