<?xml version="1.0" encoding="UTF-8" standalone="no"?>
<!-- Created with Inkscape (http://www.inkscape.org/) -->

<svg
   xmlns:dc="http://purl.org/dc/elements/1.1/"
   xmlns:cc="http://creativecommons.org/ns#"
   xmlns:rdf="http://www.w3.org/1999/02/22-rdf-syntax-ns#"
   xmlns:svg="http://www.w3.org/2000/svg"
   xmlns="http://www.w3.org/2000/svg"
   xmlns:sodipodi="http://sodipodi.sourceforge.net/DTD/sodipodi-0.dtd"
   xmlns:inkscape="http://www.inkscape.org/namespaces/inkscape"
   width="744.09448819"
   height="1052.3622047"
   id="svg2"
   version="1.1"
   inkscape:version="0.48.2 r9819"
   sodipodi:docname="question.svg">
  <defs
     id="defs4" />
  <sodipodi:namedview
     id="base"
     pagecolor="#ffffff"
     bordercolor="#666666"
     borderopacity="1.0"
     inkscape:pageopacity="0.0"
     inkscape:pageshadow="2"
     inkscape:zoom="0.56254397"
     inkscape:cx="60.960447"
     inkscape:cy="526.18109"
     inkscape:document-units="px"
     inkscape:current-layer="layer1"
     showgrid="false"
     inkscape:window-width="1366"
     inkscape:window-height="744"
     inkscape:window-x="0"
     inkscape:window-y="24"
     inkscape:window-maximized="1" />
  <metadata
     id="metadata7">
    <rdf:RDF>
      <cc:Work
         rdf:about="">
        <dc:format>image/svg+xml</dc:format>
        <dc:type
           rdf:resource="http://purl.org/dc/dcmitype/StillImage" />
        <dc:title></dc:title>
      </cc:Work>
    </rdf:RDF>
  </metadata>
  <g
     inkscape:label="Layer 1"
     inkscape:groupmode="layer"
     id="layer1">
    <path
       style="fill:none;stroke:#000000;stroke-width:40;stroke-linecap:round;stroke-linejoin:round;stroke-miterlimit:4;stroke-opacity:1;stroke-dasharray:none"
       d="m 197.31791,273.75638 c 40.87755,-17.28392 91.87535,31.89896 71.06853,72.43366 -22.0449,31.75438 -78.28243,22.00899 -88.49029,-15.53899 -15.34578,-53.40877 13.86983,-116.14192 65.63403,-137.52291 69.76281,-33.47671 166.17228,-10.41499 203.60831,60.04633 47.91051,61.61445 52.26395,153.35401 8.34319,218.27527 -52.86581,102.36682 -146.38843,178.91198 -189.22188,287.11299 -6.01669,34.20142 25.82653,59.4276 56.63915,63.76865 33.12372,5.34949 67.85271,6.72308 100.71205,1.40122 27.46713,-8.3291 56.64869,-42.52215 37.87358,-70.88058 -8.739,-11.40644 -23.23415,-16.2547 -36.85126,-18.68719"
       id="path2985"
       inkscape:connector-curvature="0" />
  </g>
</svg>
