<?xml version="1.0" encoding="UTF-8" standalone="no"?>
<svg
   xmlns:dc="http://purl.org/dc/elements/1.1/"
   xmlns:cc="http://creativecommons.org/ns#"
   xmlns:rdf="http://www.w3.org/1999/02/22-rdf-syntax-ns#"
   xmlns:svg="http://www.w3.org/2000/svg"
   xmlns="http://www.w3.org/2000/svg"
   xmlns:sodipodi="http://sodipodi.sourceforge.net/DTD/sodipodi-0.dtd"
   xmlns:inkscape="http://www.inkscape.org/namespaces/inkscape"
   viewBox="0 0 1000 1511"
   id="svg2"
   version="1.1"
   inkscape:version="0.48.2 r9819"
   width="100%"
   height="100%"
   sodipodi:docname="uni0988_Exodia-Regular.svg">
  <metadata
     id="metadata12">
    <rdf:RDF>
      <cc:Work
         rdf:about="">
        <dc:format>image/svg+xml</dc:format>
        <dc:type
           rdf:resource="http://purl.org/dc/dcmitype/StillImage" />
      </cc:Work>
    </rdf:RDF>
  </metadata>
  <defs
     id="defs10" />
  <sodipodi:namedview
     pagecolor="#ffffff"
     bordercolor="#666666"
     borderopacity="1"
     objecttolerance="10"
     gridtolerance="10"
     guidetolerance="10"
     inkscape:pageopacity="0"
     inkscape:pageshadow="2"
     inkscape:window-width="1366"
     inkscape:window-height="731"
     id="namedview8"
     showgrid="false"
     inkscape:zoom="0.3712773"
     inkscape:cx="341.6371"
     inkscape:cy="863.23619"
     inkscape:window-x="0"
     inkscape:window-y="1"
     inkscape:window-maximized="1"
     inkscape:current-layer="svg2" />
  <g
     transform="matrix(0.69852071,0,0,-0.86743561,5.1250274,799.69521)"
     id="g4"
     style="opacity:0.98999999;stroke-width:46.63422394;stroke-miterlimit:4;stroke-dasharray:none" />
  <path
     style="fill:none;stroke:#000000;stroke-width:66.40752411;stroke-linecap:round;stroke-linejoin:round;stroke-miterlimit:4;stroke-opacity:1;stroke-dasharray:none"
     d="M 210.35141,681.01927 C 334.2884,718.7213 152.07075,833.24763 150.19081,678.87611 112.46274,536.32825 318.61596,450.64334 442.01378,523.77874 612.21581,601.14119 602.28259,827.96615 445.23324,912.55006 394.70712,960.588 216.04536,1028.4701 215.11522,1035.6878 339.1309,1019.8586 461.05951,970.13777 586.53187,979.25411 422.0191,994.00065 332.87691,1205.2074 472.28747,1298.8651 c 104.97944,61.1871 308.68758,120.5592 372.03888,-17.048 10.88732,-21.5804 18.28697,-44.4751 23.18468,-67.7062"
     id="path3759"
     inkscape:connector-curvature="0"
     sodipodi:nodetypes="ccccccccc" />
  <path
     style="fill:none;stroke:#000000;stroke-width:60;stroke-linecap:butt;stroke-linejoin:miter;stroke-miterlimit:4;stroke-opacity:1;stroke-dasharray:none"
     d="M 82.268681,441.73339 632.84859,440.43253"
     id="path3771"
     inkscape:connector-curvature="0" />
  <path
     style="fill:none;stroke:#000000;stroke-width:80;stroke-linecap:round;stroke-linejoin:round;stroke-miterlimit:4;stroke-opacity:1;stroke-dasharray:none"
     d="m 293.58111,428.25134 c -79.7103,10.85915 -101.62231,-86.25256 -93.61545,-147.06322 5.27375,-84.85375 102.55991,-90.08971 167.33353,-90.98369 82.25844,-7.61044 173.16123,14.50569 245.04021,-38.02019 51.37294,-27.67788 90.16626,-92.596327 44.85135,-144.1040261"
     id="path3773"
     inkscape:connector-curvature="0" />
</svg>
